<svg xmlns="http://www.w3.org/2000/svg" xmlns:xlink="http://www.w3.org/1999/xlink" width="38" height="25" viewBox="0 0 38 25"><defs><path id="bco5a" d="M300.438 921.046h-1.645a.585.585 0 0 1-.536-.354c-.32.227-.744.354-1.269.354h-1.644a.575.575 0 0 1-.253-.063.572.572 0 0 1-.253.063h-2.817a.558.558 0 0 1-.258-.065.573.573 0 0 1-.257.065h-.847a.583.583 0 0 1-.584-.583v-.513c.002-.05.002-.126-.002-.189a2.484 2.484 0 0 0-.171-.005h-.319v.707a.583.583 0 0 1-.583.583h-.848a.583.583 0 0 1-.584-.583v-.897c-.3.178-.713.295-1.283.295h-.47v.602a.583.583 0 0 1-.583.583h-1.64a.584.584 0 0 1-.437-.195l-.612-.688-.644.697a.584.584 0 0 1-.428.188h-3.344a.583.583 0 0 1-.583-.584v-3.53c0-.324.261-.584.583-.584h3.395c.167 0 .324.07.434.193l.613.682.64-.69a.583.583 0 0 1 .427-.185h2.697c.591 0 1.007.13 1.303.324a.577.577 0 0 1 .516-.324h1.95c.448 0 .882.017 1.29.234.044.026.072.06.113.087a.576.576 0 0 1 .514-.321h2.817c.218 0 .403.125.503.304.278-.189.646-.304 1.11-.304h1.692c.255 0 .464.163.545.39.29-.236.685-.39 1.212-.39h1.693c.322 0 .583.26.583.583v.751a.582.582 0 0 1-.267.491l.017.017c.29.298.422.665.422 1.158 0 1.062-.713 1.698-1.908 1.696zm-23.297-6.423l-.11-.251v.014a.583.583 0 0 1-.584.583h-1.716a.583.583 0 0 1-.54-.362l-.175-.426h-.978l-.178.43a.582.582 0 0 1-.537.358h-.917a.584.584 0 0 1-.536-.812l1.51-3.531a.583.583 0 0 1 .537-.353h1.253c.233 0 .443.138.536.352l.316.738v-.507c0-.322.26-.583.583-.583h1.379c.226 0 .433.133.53.34l.551 1.198.501-1.182a.582.582 0 0 1 .536-.356h1.407c.118 0 .221.044.314.105a.567.567 0 0 1 .315-.105h2.818c.11 0 .206.038.292.09a.568.568 0 0 1 .293-.09h1.94c.503 0 .918.018 1.314.247.04.024.07.055.106.082a.58.58 0 0 1 .519-.329h.86c.292 0 .524.217.567.496.377-.327.892-.496 1.584-.496h.816c.13 0 .252.043.348.116a.58.58 0 0 1 .35-.116h1.263c.233 0 .443.14.535.354l.31.725v-.496c0-.322.261-.583.584-.583h1.285c.204 0 .393.107.498.282l.402.665v-.364c0-.322.262-.583.584-.583h.863c.322 0 .583.26.583.583v3.53a.584.584 0 0 1-.583.583h-1.195a.583.583 0 0 1-.5-.281l-.518-.859v.557a.584.584 0 0 1-.583.583h-1.718a.585.585 0 0 1-.538-.358l-.178-.43h-.973l-.172.424a.58.58 0 0 1-.538.365h-.988c-.376 0-1.048-.068-1.528-.47a.575.575 0 0 1-.56.47h-.862a.576.576 0 0 1-.264-.07.561.561 0 0 1-.262.07h-.851a.584.584 0 0 1-.584-.578l-.003-.446.001-.077c0-.048.002-.119-.002-.179a2.434 2.434 0 0 0-.164-.004h-.322v.701a.583.583 0 0 1-.583.583h-.845a.57.57 0 0 1-.292-.09.562.562 0 0 1-.292.09h-2.819a.573.573 0 0 1-.314-.105.576.576 0 0 1-.315.105h-.865a.582.582 0 0 1-.583-.582v-.015l-.112.25a.582.582 0 0 1-.533.348h-.741a.582.582 0 0 1-.532-.348zm27.06-11.003h-35.244a.956.956 0 0 0-.957.957v22.167c0 .528.428.957.957.957H304.2a.956.956 0 0 0 .957-.957v-22.167a.956.956 0 0 0-.957-.957z"/><path id="bco5b" d="M286.827 912.297c-.117.07-.254.073-.418.073h-1.026l.001-.784h1.04c.146 0 .3.007.4.064.109.051.177.16.177.312 0 .154-.066.278-.174.335zm.508.445a.992.992 0 0 0 .594-.94c0-.395-.16-.625-.426-.783-.274-.158-.591-.169-1.022-.169h-1.941v3.53h.845v-1.283h.904c.304 0 .492.027.615.151.154.17.133.475.133.688l.004.445h.852v-.694c0-.315-.02-.472-.14-.648a.975.975 0 0 0-.418-.297z"/><path id="bco5c" d="M288.42 914.38v-3.53h.86v3.53z"/><path id="bco5d" d="M292.974 912.857l.584-1.408.59 1.408zm5.43-2.007v2.46l-1.484-2.46h-1.285v3.34l-1.43-3.34h-1.263l-1.192 2.776h-.378c-.22 0-.459-.042-.589-.182-.158-.178-.232-.45-.232-.828 0-.371.098-.652.242-.8.167-.163.34-.21.65-.21h.8v-.756h-.817c-.581 0-1.01.13-1.281.411-.362.378-.455.857-.455 1.381 0 .642.155 1.048.453 1.348.293.3.812.39 1.223.39h.988l.318-.787h1.752l.33.788h1.717v-2.65l1.601 2.65h1.195v-3.531h-.863z"/><path id="bco5e" d="M291.45 912.19c-.198 0-.219.02-.243.043-.008.012-.067.139-.067.383 0 .242.039.359.067.412.03.007.084.017.166.017l.366-.855z"/><path id="bco5f" d="M294.826 917.66v-.73h-2.816v3.532h2.816v-.733l-1.977-.004v-.702h1.928v-.72h-1.928v-.643z"/><path id="bco5g" d="M286.322 918.558h-1.09v-.899h1.1c.306 0 .516.124.516.434 0 .305-.2.467-.526.465zm-1.94 1.582l-1.286-1.44 1.286-1.392zm-3.336-.414h-2.074v-.703h1.852v-.72h-1.852v-.643h2.115l.923 1.029zm5.287-2.796h-2.696l-1.074 1.157-1.04-1.157h-3.393v3.53h3.343l1.08-1.168 1.04 1.169h1.64v-1.184h1.052c.738 0 1.47-.203 1.47-1.184 0-.977-.753-1.164-1.422-1.163z"/><path id="bco5h" d="M290.43 918.381c-.112.067-.251.073-.415.073h-1.019v-.793h1.033c.148 0 .298.003.4.064.109.057.174.167.174.317 0 .151-.065.274-.172.34zm.518.44a.992.992 0 0 0 .6-.941c0-.403-.168-.624-.434-.784-.278-.148-.589-.166-1.016-.166h-1.948v3.53h.847v-1.289h.902c.308 0 .495.03.619.157.156.164.136.479.136.691v.442h.847v-.7c-.003-.311-.02-.472-.14-.644a.915.915 0 0 0-.413-.297z"/><path id="bco5i" d="M298.057 918.598c-.194-.192-.508-.271-.966-.282l-.454-.013a.978.978 0 0 1-.329-.04.271.271 0 0 1-.184-.263c0-.112.034-.197.128-.255.084-.057.183-.064.338-.064h1.547v-.751h-1.69c-.886 0-1.207.538-1.207 1.051 0 1.117.989 1.067 1.777 1.092.148 0 .236.025.3.079a.3.3 0 0 1 .103.233c0 .096-.04.177-.098.23-.071.068-.185.088-.344.088h-1.637v.757h1.643c.85 0 1.326-.354 1.326-1.114 0-.363-.088-.578-.253-.748z"/><path id="bco5j" d="M272.955 912.858l.578-1.407.582 1.407zm6.151-2.008l-1.014 2.395-1.104-2.395h-1.378v3.343l-1.436-3.343h-1.253l-1.511 3.53h.916l.328-.787h1.757l.324.788h1.717v-2.768l1.226 2.767h.743l1.223-2.764.003 2.765h.866v-3.531h-1.407z"/><path id="bco5k" d="M283.958 911.586v-.736h-2.818v3.532h2.818v-.73h-1.975v-.707h1.929v-.723h-1.929v-.636z"/><path id="bco5l" d="M301.507 918.598c-.193-.192-.508-.271-.966-.282l-.454-.013a.985.985 0 0 1-.329-.04.272.272 0 0 1-.183-.263c0-.112.034-.197.127-.255.085-.057.185-.064.339-.064h1.548v-.751h-1.692c-.885 0-1.207.538-1.207 1.051 0 1.117.99 1.067 1.778 1.092.148 0 .235.025.3.079.059.05.103.13.103.233a.317.317 0 0 1-.098.23c-.072.068-.186.088-.345.088h-1.636v.757h1.643c.851 0 1.325-.354 1.325-1.114 0-.363-.087-.578-.253-.748z"/></defs><g><g transform="translate(-268 -903)"><g><g><use fill="#68625d" xlink:href="#bco5a"/></g><g><use fill="#68625d" xlink:href="#bco5b"/></g><g><use fill="#68625d" xlink:href="#bco5c"/></g><g><use fill="#68625d" xlink:href="#bco5d"/></g><g><use fill="#68625d" xlink:href="#bco5e"/></g><g><use fill="#68625d" xlink:href="#bco5f"/></g><g><use fill="#68625d" xlink:href="#bco5g"/></g><g><use fill="#68625d" xlink:href="#bco5h"/></g><g><use fill="#68625d" xlink:href="#bco5i"/></g><g><use fill="#68625d" xlink:href="#bco5j"/></g><g><use fill="#68625d" xlink:href="#bco5k"/></g><g><use fill="#68625d" xlink:href="#bco5l"/></g></g></g></g></svg>