<svg xmlns="http://www.w3.org/2000/svg" xmlns:xlink="http://www.w3.org/1999/xlink" width="38" height="25" viewBox="0 0 38 25"><defs><path id="iy88a" d="M109.405 917.309c-.315 0-.397-.24-.397-.384 0-.277.15-.612.894-.612.174 0 .192.019.221.024.02.171-.106.972-.718.972zm.501-3.249c-.696 0-1.23.224-1.23.224l-.147.875s.44-.18 1.107-.18c.378 0 .654.043.654.35 0 .187-.033.256-.033.256s-.298-.024-.436-.024c-.879 0-1.801.373-1.801 1.504 0 .891.605 1.094.98 1.094.717 0 1.026-.464 1.042-.465l-.034.388h.894l.399-2.796c0-1.188-1.036-1.226-1.395-1.226z"/><path id="iy88b" d="M113.134 915c.142 0 .693.046.693.046l.128-.896s-.356-.08-.936-.08c-.752 0-1.514.3-1.514 1.326 0 1.163 1.271 1.044 1.271 1.535 0 .327-.355.353-.628.353-.475 0-.901-.161-.902-.155l-.136.889c.024.007.287.124 1.14.124.228 0 1.535.059 1.535-1.29 0-1.262-1.21-1.013-1.21-1.52 0-.253.197-.332.559-.332z"/><path id="iy88c" d="M115.27 915.117h.538l.13-.955h-.507l.103-.592h-1.015c-.022.022-.599 3.34-.599 3.742 0 .6.336.865.81.86.37-.002.658-.105.76-.133l.127-.863c-.07 0-.171.03-.261.03-.354 0-.393-.189-.37-.327z"/><path id="iy88d" d="M119.521 909.57h-1.811a13.41 13.41 0 0 0-.68 1.021h3.232a9.656 9.656 0 0 0-.74-1.021z"/><path id="iy88e" d="M133.538 920.937h-.065v-.1h.061c.026 0 .043.002.053.006.01.004.017.01.023.017a.045.045 0 0 1 .008.026.047.047 0 0 1-.016.038c-.012.008-.033.013-.064.013zm.12.12a.524.524 0 0 0-.05-.066.07.07 0 0 0-.027-.017.103.103 0 0 0 .069-.03.088.088 0 0 0 .01-.112.08.08 0 0 0-.042-.032.25.25 0 0 0-.084-.01h-.114v.332h.054v-.14h.03c.02 0 .034.003.043.011a.299.299 0 0 1 .057.077l.028.053h.067z"/><path id="iy88f" d="M120.81 911.59h-4.346c-.278.526-.462.923-.514 1.022h5.272a9.63 9.63 0 0 0-.411-1.022z"/><path id="iy88g" d="M106.776 913.25l-1 2.967-.053-2.967h-1.481l-.812 4.835h.98l.617-3.645.091 3.645h.7l1.304-3.645-.578 3.645h1.04l.8-4.835z"/><path id="iy88h" d="M125.858 917.309c-.316 0-.398-.24-.398-.384 0-.277.15-.612.895-.612.173 0 .191.019.22.024.02.171-.107.972-.717.972zm.5-3.249c-.698 0-1.23.224-1.23.224l-.149.875s.441-.18 1.107-.18c.378 0 .655.043.655.35 0 .187-.035.256-.035.256s-.297-.024-.437-.024c-.877 0-1.799.373-1.799 1.504 0 .891.605 1.094.98 1.094.716 0 1.025-.464 1.042-.465l-.034.388h.894l.398-2.796c.002-1.188-1.033-1.226-1.393-1.226z"/><path id="iy88i" d="M133.652 917.926a.26.26 0 0 1-.222.13.26.26 0 0 1-.258-.258c0-.044.011-.087.035-.128a.257.257 0 0 1 .445.256zm.043-.281a.277.277 0 0 0-.116-.115.307.307 0 0 0-.418.421.295.295 0 0 0 .114.115.31.31 0 0 0 .42-.422z"/><path id="iy88j" d="M133.41 917.775h-.065v-.1h.06a.19.19 0 0 1 .053.005c.008.005.016.01.021.018a.043.043 0 0 1 .009.027.049.049 0 0 1-.016.036c-.012.011-.032.014-.063.014zm.119.122a.412.412 0 0 0-.049-.066.076.076 0 0 0-.028-.017.102.102 0 0 0 .068-.03.086.086 0 0 0 .01-.112.093.093 0 0 0-.04-.032.255.255 0 0 0-.084-.01h-.116v.332h.054v-.141h.03c.02 0 .035.004.044.011a.336.336 0 0 1 .057.078l.028.052h.067z"/><path id="iy88k" d="M129.81 914.11c-.454 0-.791.62-.791.62l.09-.57h-.945l-.634 3.936h1.042c.297-1.682.35-3.046 1.055-2.797.125-.65.244-.901.38-1.176 0 0-.064-.013-.196-.013z"/><path id="iy88l" d="M131.138 917.163c-.366 0-.537-.306-.537-.788 0-.787.353-1.306.8-1.306.364 0 .552.25.552.842 0 .536-.265 1.252-.815 1.252zm1.287-3.901l-.219 1.359s-.381-.529-.98-.529c-.931 0-1.706 1.123-1.706 2.41 0 .833.414 1.648 1.259 1.648.608 0 .945-.424.945-.424l-.044.362h.987l.777-4.828z"/><path id="iy88m" d="M134.511 915.66c.002 5.267-4.266 9.538-9.533 9.54a9.497 9.497 0 0 1-6.401-2.467 9.497 9.497 0 0 1-6.393 2.464c-5.264 0-9.536-4.272-9.536-9.536 0-5.244 4.239-9.503 9.475-9.537h.061c2.46 0 4.702.933 6.394 2.464a9.502 9.502 0 0 1 6.396-2.466c5.267-.002 9.537 4.267 9.538 9.534v.005zm-.698 5.44a.282.282 0 0 1-.112.113.308.308 0 0 1-.302 0 .304.304 0 0 1 .001-.528.32.32 0 0 1 .15-.04c.051 0 .1.014.148.04a.276.276 0 0 1 .114.112.309.309 0 0 1 .001.302zm2.388-17.48h-35.244a.956.956 0 0 0-.957.957v22.167c0 .529.428.957.957.957H136.2a.956.956 0 0 0 .957-.957v-22.167a.956.956 0 0 0-.957-.957z"/><path id="iy88n" d="M117.6 921.69c.302.37.622.722.975 1.042l.024-.02h.002a9.53 9.53 0 0 0 .968-1.022H117.6z"/><path id="iy88o" d="M117.596 914.951c.578 0 .471.644.471.696h-1.137c0-.067.108-.696.666-.696zm1.305 1.5s.133-.658.133-.926c0-.67-.333-1.485-1.447-1.485-1.021 0-1.777 1.1-1.777 2.344 0 1.435.947 1.776 1.754 1.776.745 0 1.072-.167 1.072-.167l.18-.98s-.567.25-1.079.25c-1.09 0-.9-.812-.9-.812h2.064z"/><path id="iy88p" d="M123.658 914.174c.516 0 .931.29.931.29l.166-1.075s-.614-.249-1.143-.249c-1.172 0-2.312 1.017-2.312 2.927 0 1.266.615 2.103 1.827 2.103.342 0 .888-.14.888-.14l.182-1.107s-.498.25-.84.25c-.72-.001-1.01-.551-1.01-1.14 0-1.2.62-1.859 1.31-1.859z"/><path id="iy88q" d="M116.33 919.68c.165.355.357.692.563 1.021h3.384a9.55 9.55 0 0 0 .555-1.021z"/><path id="iy88r" d="M121.298 914.11c-.456 0-.794.62-.794.62l.091-.57h-.949l-.636 3.936h1.046c.297-1.681.352-3.046 1.06-2.796.124-.651.244-.903.379-1.178 0 0-.063-.013-.197-.012z"/></defs><g><g transform="translate(-100 -903)"><g><g><use fill="#68625d" xlink:href="#iy88a"/></g><g><use fill="#68625d" xlink:href="#iy88b"/></g><g><use fill="#68625d" xlink:href="#iy88c"/></g><g><use fill="#68625d" xlink:href="#iy88d"/></g><g><use fill="#68625d" xlink:href="#iy88e"/></g><g><use fill="#68625d" xlink:href="#iy88f"/></g><g><use fill="#68625d" xlink:href="#iy88g"/></g><g><use fill="#68625d" xlink:href="#iy88h"/></g><g><use fill="#68625d" xlink:href="#iy88i"/></g><g><use fill="#68625d" xlink:href="#iy88j"/></g><g><use fill="#68625d" xlink:href="#iy88k"/></g><g><use fill="#68625d" xlink:href="#iy88l"/></g><g><use fill="#68625d" xlink:href="#iy88m"/></g><g><use fill="#68625d" xlink:href="#iy88n"/></g><g><use fill="#68625d" xlink:href="#iy88o"/></g><g><use fill="#68625d" xlink:href="#iy88p"/></g><g><use fill="#68625d" xlink:href="#iy88q"/></g><g><use fill="#68625d" xlink:href="#iy88r"/></g></g></g></g></svg>