<svg xmlns="http://www.w3.org/2000/svg" xmlns:xlink="http://www.w3.org/1999/xlink" width="38" height="25" viewBox="0 0 38 25"><defs><path id="em4ga" d="M47.94 920.368s-.233-1.079-.311-1.407l-3.276-.003c-.1.253-.538 1.41-.538 1.41H41.13l3.798-8.602c.27-.611.727-.779 1.34-.779h1.976l2.07 9.38zm-11.085.127c-1.147-.012-2.252-.239-2.85-.5l.36-2.1.33.15c.84.35 1.383.492 2.408.492.734 0 1.522-.287 1.53-.915.004-.411-.33-.704-1.326-1.164-.971-.449-2.257-1.2-2.241-2.547.014-1.823 1.795-3.094 4.323-3.094.991 0 1.785.203 2.292.393l-.345 2.033-.231-.108a4.724 4.724 0 0 0-1.915-.36c-1.001 0-1.466.418-1.466.807-.005.44.542.728 1.437 1.164 1.476.669 2.158 1.48 2.149 2.547-.02 1.945-1.765 3.202-4.455 3.202zm-4.458-.14h-2.552l1.596-9.378h2.553zm-8.721.002l-2.291-7.826c1.647 1.054 3.05 2.726 3.543 3.89l.267.967 2.506-6.4h2.71l-4.028 9.368zm-4.799-9.46h3.966c.535.02.966.19 1.114.762l.863 4.149c-.848-2.17-2.89-3.975-5.976-4.723zm33.324-7.277H16.957a.956.956 0 0 0-.957.957v22.167c0 .529.428.957.957.957H52.2a.956.956 0 0 0 .957-.957v-22.167a.956.956 0 0 0-.957-.957z"/><path id="em4gb" d="M46.622 914.33l-.173-.81c-.13.353-.354.921-.34.896 0 0-.808 2.084-1.019 2.624h2.124l-.592-2.71z"/></defs><g><g transform="translate(-16 -903)"><g><g><use fill="#68625d" xlink:href="#em4ga"/></g><g><use fill="#68625d" xlink:href="#em4gb"/></g></g></g></g></svg>