<svg xmlns="http://www.w3.org/2000/svg" xmlns:xlink="http://www.w3.org/1999/xlink" width="38" height="25" viewBox="0 0 38 25"><defs><path id="i1iva" d="M204.81 911.59h-4.346c-.278.526-.462.923-.514 1.022h5.272a9.63 9.63 0 0 0-.411-1.022z"/><path id="i1ivb" d="M197.7 917.21c-.259 0-.408-.15-.408-.38 0-.378.326-.569.965-.569.081 0 .136.002.258.015-.028.553-.354.935-.816.935zm.561-3.09c-.418 0-.781.053-1.347.197l-.148.841.094-.024.162-.041a3.99 3.99 0 0 1 .93-.103c.524 0 .727.092.727.339 0 .068-.014.12-.04.242a4.646 4.646 0 0 0-.459-.029c-1.252 0-1.98.533-1.98 1.44 0 .604.418 1.02 1.024 1.02.512 0 .904-.143 1.186-.45l-.027.386h.943l.013-.1.014-.13.027-.189.04-.237.243-1.327c.067-.416.08-.556.08-.74 0-.715-.511-1.095-1.482-1.095z"/><path id="i1ivc" d="M194.716 913.35l-1.254 2.845-.08-2.845h-1.766l-.876 4.595h1.024l.673-3.51.19 3.51h1.024l1.549-3.533-.674 3.533h1.132l.89-4.595z"/><path id="i1ivd" d="M215.211 917.627c-.013.005-.027.005-.027.005h-.04v-.066h.028c.013 0 .04 0 .04.006.014.005.014.015.014.025 0 .011-.002.024-.015.03zm.081-.028a.105.105 0 0 0-.027-.065.155.155 0 0 0-.067-.014h-.108v.258h.054v-.1h.04l.04.1h.068l-.04-.112c.027-.011.04-.039.04-.067z"/><path id="i1ive" d="M217.581 920.917c-.014.005-.027.005-.027.005h-.04v-.065h.026c.014 0 .041 0 .041.005.014.005.014.016.014.025 0 .012 0 .024-.014.03zm.082-.028a.103.103 0 0 0-.028-.065.156.156 0 0 0-.068-.014h-.107v.258h.054v-.101h.04l.04.1h.069l-.041-.112c.027-.01.04-.037.04-.066z"/><path id="i1ivf" d="M218.511 915.66c.002 5.267-4.266 9.538-9.533 9.54a9.497 9.497 0 0 1-6.401-2.467 9.497 9.497 0 0 1-6.393 2.464c-5.264 0-9.536-4.272-9.536-9.536 0-5.244 4.239-9.503 9.475-9.537h.061c2.46 0 4.702.933 6.394 2.464a9.502 9.502 0 0 1 6.396-2.466c5.267-.002 9.537 4.267 9.538 9.534v.005zm-.698 5.44a.282.282 0 0 1-.112.113.308.308 0 0 1-.302 0 .304.304 0 0 1 .001-.528.32.32 0 0 1 .15-.04c.051 0 .1.014.148.04a.276.276 0 0 1 .114.112.309.309 0 0 1 .001.302zm2.388-17.48h-35.244a.956.956 0 0 0-.957.957v22.167c0 .529.428.957.957.957H220.2a.956.956 0 0 0 .957-.957v-22.167a.956.956 0 0 0-.957-.957z"/><path id="i1ivg" d="M203.521 909.57h-1.811a13.41 13.41 0 0 0-.68 1.021h3.232a9.656 9.656 0 0 0-.74-1.021z"/><path id="i1ivh" d="M205.53 915.003c.229 0 .525.02.821.054l.162-.863a8.852 8.852 0 0 0-1.01-.074c-1.267 0-1.713.575-1.712 1.262 0 .472.27.797.876 1.042.457.186.525.241.525.412 0 .232-.201.337-.646.337a3.65 3.65 0 0 1-1.025-.147l-.161.862.054.01.202.036c.067.014.175.025.31.034.269.02.47.031.619.031 1.213 0 1.766-.394 1.766-1.246 0-.513-.23-.813-.809-1.04-.472-.189-.526-.232-.526-.407 0-.2.189-.303.553-.303z"/><path id="i1ivi" d="M211.425 914.202c-.055-.014-.096-.02-.096-.023a.835.835 0 0 0-.122-.009c-.364 0-.633.166-.983.607l.108-.567h-1.025l-.687 3.737h1.132c.405-2.285.58-2.686 1.118-2.686.04 0 .08.003.135.009l.135.028.406-1.056c-.094-.036-.108-.036-.121-.04z"/><path id="i1ivj" d="M208.028 915.117h.58l.162-.91h-.58l.163-.857h-1.119l-.525 2.853-.054.295-.068.368c-.014.118-.027.23-.027.335 0 .53.31.82.89.82.255 0 .498-.036.808-.121l.148-.829c-.08.024-.174.036-.296.036-.27 0-.391-.083-.391-.276 0-.034 0-.086.013-.155z"/><path id="i1ivk" d="M215.187 917.874a.23.23 0 0 1-.23-.223c0-.123.109-.221.23-.221.122 0 .215.098.215.22a.217.217 0 0 1-.215.224zm0-.514a.296.296 0 0 0-.297.29c0 .163.135.294.297.294.162 0 .296-.131.296-.293 0-.16-.134-.291-.296-.291z"/><path id="i1ivl" d="M213.856 916.218c-.094.582-.62.916-.862.916-.405.007-.647-.334-.647-.841 0-.6.35-1.281.93-1.281.458 0 .619.37.619.76 0 .162-.013.309-.04.446zm-.553-2.118c-1.347 0-2.223.898-2.223 2.221 0 .948.511 1.723 1.793 1.723 1.158 0 2.02-.552 2.196-1.794.027-.217.027-.232.027-.464 0-.948-.62-1.686-1.793-1.686z"/><path id="i1ivm" d="M201.903 914.975c.337 0 .526.177.526.48v.193l-1.253-.002c.108-.434.364-.67.727-.67zm1.4 1.425c.096-.379.136-.647.136-.923 0-.829-.593-1.357-1.522-1.357-1.132 0-1.967.944-1.967 2.225 0 1.102.66 1.675 1.926 1.675.391 0 .768-.05 1.146-.15l.188-.936a2.986 2.986 0 0 1-1.172.237c-.647 0-.984-.22-.984-.653 0-.035 0-.06.014-.118h2.235z"/><path id="i1ivn" d="M200.33 919.69c.165.354.358.691.563 1.021h3.384c.205-.328.39-.668.555-1.021z"/><path id="i1ivo" d="M201.6 921.69c.302.37.622.724.975 1.042l.024-.02h.002a9.53 9.53 0 0 0 .968-1.022H201.6z"/></defs><g><g transform="translate(-184 -903)"><g><g><use fill="#68625d" xlink:href="#i1iva"/></g><g><use fill="#68625d" xlink:href="#i1ivb"/></g><g><use fill="#68625d" xlink:href="#i1ivc"/></g><g><use fill="#68625d" xlink:href="#i1ivd"/></g><g><use fill="#68625d" xlink:href="#i1ive"/></g><g><use fill="#68625d" xlink:href="#i1ivf"/></g><g><use fill="#68625d" xlink:href="#i1ivg"/></g><g><use fill="#68625d" xlink:href="#i1ivh"/></g><g><use fill="#68625d" xlink:href="#i1ivi"/></g><g><use fill="#68625d" xlink:href="#i1ivj"/></g><g><use fill="#68625d" xlink:href="#i1ivk"/></g><g><use fill="#68625d" xlink:href="#i1ivl"/></g><g><use fill="#68625d" xlink:href="#i1ivm"/></g><g><use fill="#68625d" xlink:href="#i1ivn"/></g><g><use fill="#68625d" xlink:href="#i1ivo"/></g></g></g></g></svg>